<svg width="79" height="79" viewBox="0 0 79 79" fill="none" xmlns="http://www.w3.org/2000/svg">
<circle cx="39.3667" cy="39.4097" r="28.934" transform="rotate(29.0976 39.3667 39.4097)" fill="#FBFBFB"/>
<path d="M45.904 26.2287C47.3882 27.0547 48.412 28.1621 48.9755 29.5511C49.5575 30.9504 49.6699 32.4511 49.3127 34.0536L51.7117 29.7431L54.2441 31.1526L44.6828 48.3327C43.8146 49.8926 42.7466 51.1129 41.479 51.9935C40.2114 52.8741 38.851 53.3537 37.3979 53.4322C35.9449 53.5106 34.504 53.1523 33.0755 52.3573C31.0161 51.2112 29.6455 49.7225 28.9637 47.8914C28.2704 46.0808 28.2673 44.1434 28.9543 42.0794L31.459 43.4733C31.1275 44.7674 31.1929 45.9598 31.6551 47.0504C32.1245 48.1718 33.0085 49.094 34.3072 49.8168C35.6801 50.5808 37.086 50.7181 38.5248 50.2284C39.9708 49.7697 41.1793 48.668 42.1503 46.9232L44.7034 42.3357C43.5298 43.4838 42.1952 44.1792 40.6993 44.4221C39.2219 44.6752 37.7411 44.3887 36.2569 43.5627C34.9026 42.809 33.8908 41.7889 33.2217 40.5025C32.5526 39.216 32.2717 37.7559 32.3792 36.122C32.5166 34.4779 33.0765 32.7733 34.0589 31.0081C35.0413 29.2429 36.1949 27.8687 37.5197 26.8854C38.8631 25.9125 40.2576 25.3714 41.7036 25.262C43.1495 25.1527 44.5496 25.4749 45.904 26.2287ZM45.2396 29.1252C43.6811 28.2579 42.1204 28.1151 40.5573 28.6969C39.0243 29.2685 37.7208 30.519 36.647 32.4485C35.5732 34.3779 35.1917 36.155 35.5025 37.7796C35.8433 39.3941 36.7929 40.635 38.3513 41.5023C39.3531 42.0599 40.3865 42.299 41.4513 42.2194C42.5347 42.1503 43.556 41.7778 44.5153 41.1019C45.4861 40.4055 46.3141 39.4416 46.9995 38.21C47.6849 36.9785 48.0677 35.7667 48.1479 34.5747C48.2282 33.3827 48.0065 32.3184 47.4828 31.3818C46.9892 30.435 46.2414 29.6828 45.2396 29.1252Z" fill="black"/>
<mask id="mask0_1_107" style="mask-type:alpha" maskUnits="userSpaceOnUse" x="28" y="25" width="27" height="29">
<path d="M45.9046 26.2328C47.3897 27.0593 48.4143 28.1672 48.9785 29.5565C49.5611 30.9561 49.6741 32.457 49.3172 34.0595L51.7159 29.7493L54.25 31.1596L44.6892 48.3387C43.821 49.8986 42.7529 51.1187 41.485 51.999C40.217 52.8794 38.8562 53.3586 37.4024 53.4366C35.9487 53.5147 34.5072 53.156 33.0777 52.3604C31.0171 51.2136 29.6454 49.7244 28.9627 47.8929C28.2686 46.0819 28.2649 44.1443 28.9517 42.0802L31.4579 43.475C31.1266 44.7692 31.1924 45.9617 31.6551 47.0526C32.125 48.1743 33.0097 49.0968 34.3092 49.82C35.683 50.5845 37.0896 50.7222 38.5289 50.2329C39.9755 49.7746 41.1842 48.6731 42.1551 46.9284L44.7081 42.3412C43.5343 43.4891 42.1992 44.1841 40.7027 44.4266C39.2247 44.6793 37.7432 44.3924 36.2581 43.5659C34.9029 42.8116 33.8903 41.7912 33.2206 40.5044C32.5508 39.2176 32.2694 37.7573 32.3764 36.1233C32.5134 34.4791 33.0731 32.7744 34.0554 31.0093C35.0377 29.2442 36.1915 27.8702 37.5166 26.8872C38.8603 25.9145 40.2554 25.3738 41.7019 25.2649C43.1485 25.1559 44.5493 25.4786 45.9046 26.2328ZM45.2407 29.1295C43.6813 28.2616 42.1198 28.1184 40.5562 28.6998C39.0226 29.271 37.7189 30.5212 36.6451 32.4506C35.5714 34.3799 35.1902 36.157 35.5016 37.7819C35.843 39.3966 36.7934 40.638 38.3528 41.5058C39.3553 42.0638 40.3891 42.3032 41.4544 42.2239C42.5383 42.1551 43.56 41.7828 44.5195 41.1072C45.4905 40.411 46.3187 39.4472 47.0041 38.2157C47.6894 36.9843 48.072 35.7725 48.152 34.5804C48.2319 33.3882 48.0098 32.3238 47.4856 31.3869C46.9915 30.4399 46.2432 29.6874 45.2407 29.1295Z" fill="black"/>
</mask>
<g mask="url(#mask0_1_107)">
<path d="M47.0863 48.2301L38.0571 46.136L36.9866 49.9033L46.0159 51.9974L47.0863 48.2301Z" fill="#FF7E21" stroke="#FBFBFB" stroke-width="2"/>
</g>
</svg>
