<svg width="97" height="97" viewBox="0 0 97 97" fill="none" xmlns="http://www.w3.org/2000/svg">
<circle cx="48.3667" cy="48.4097" r="28.934" transform="rotate(29.0976 48.3667 48.4097)" fill="#FBFBFB"/>
<path d="M54.904 35.2287C56.3882 36.0547 57.412 37.1621 57.9755 38.5511C58.5575 39.9504 58.6699 41.4511 58.3127 43.0536L60.7117 38.7431L63.2441 40.1526L53.6828 57.3327C52.8146 58.8926 51.7466 60.1129 50.479 60.9935C49.2114 61.8741 47.851 62.3537 46.3979 62.4322C44.9449 62.5106 43.504 62.1523 42.0755 61.3573C40.0161 60.2112 38.6455 58.7225 37.9637 56.8914C37.2704 55.0808 37.2673 53.1434 37.9543 51.0794L40.459 52.4733C40.1275 53.7674 40.1929 54.9597 40.6551 56.0504C41.1245 57.1718 42.0085 58.094 43.3072 58.8168C44.6801 59.5808 46.086 59.7181 47.5248 59.2284C48.9708 58.7697 50.1793 57.668 51.1503 55.9232L53.7034 51.3357C52.5298 52.4838 51.1952 53.1792 49.6993 53.4221C48.2219 53.6752 46.7411 53.3887 45.2569 52.5627C43.9026 51.809 42.8908 50.7889 42.2217 49.5025C41.5526 48.216 41.2717 46.7559 41.3792 45.122C41.5166 43.4779 42.0765 41.7733 43.0589 40.0081C44.0413 38.2429 45.1949 36.8687 46.5197 35.8854C47.8631 34.9125 49.2576 34.3714 50.7036 34.262C52.1495 34.1527 53.5496 34.4749 54.904 35.2287ZM54.2396 38.1252C52.6811 37.2579 51.1204 37.1151 49.5573 37.6969C48.0243 38.2685 46.7208 39.519 45.647 41.4485C44.5732 43.3779 44.1917 45.155 44.5025 46.7796C44.8433 48.3941 45.7929 49.635 47.3513 50.5023C48.3531 51.0599 49.3865 51.299 50.4513 51.2194C51.5347 51.1503 52.556 50.7778 53.5153 50.1019C54.4861 49.4055 55.3141 48.4416 55.9995 47.21C56.6849 45.9785 57.0677 44.7667 57.1479 43.5747C57.2282 42.3827 57.0065 41.3184 56.4828 40.3818C55.9892 39.435 55.2414 38.6828 54.2396 38.1252Z" fill="black"/>
<mask id="mask0_1_106" style="mask-type:alpha" maskUnits="userSpaceOnUse" x="37" y="34" width="27" height="29">
<path d="M54.9046 35.2328C56.3897 36.0593 57.4143 37.1672 57.9785 38.5565C58.5611 39.9561 58.6741 41.457 58.3172 43.0595L60.7159 38.7493L63.25 40.1596L53.6892 57.3387C52.821 58.8986 51.7529 60.1187 50.485 60.999C49.217 61.8794 47.8562 62.3586 46.4024 62.4366C44.9487 62.5147 43.5072 62.156 42.0777 61.3604C40.0171 60.2136 38.6454 58.7244 37.9627 56.8929C37.2686 55.0819 37.2649 53.1443 37.9517 51.0802L40.4579 52.475C40.1266 53.7692 40.1924 54.9617 40.6551 56.0526C41.125 57.1743 42.0097 58.0968 43.3092 58.82C44.683 59.5845 46.0896 59.7222 47.5289 59.2329C48.9755 58.7746 50.1842 57.6731 51.1551 55.9284L53.7081 51.3412C52.5343 52.4891 51.1992 53.1841 49.7027 53.4266C48.2247 53.6793 46.7432 53.3924 45.2581 52.5659C43.9029 51.8116 42.8903 50.7912 42.2206 49.5044C41.5508 48.2176 41.2694 46.7573 41.3764 45.1233C41.5134 43.4791 42.0731 41.7744 43.0554 40.0093C44.0377 38.2442 45.1915 36.8702 46.5166 35.8872C47.8603 34.9145 49.2554 34.3738 50.7019 34.2649C52.1485 34.1559 53.5493 34.4786 54.9046 35.2328ZM54.2407 38.1295C52.6813 37.2616 51.1198 37.1184 49.5562 37.6998C48.0226 38.271 46.7189 39.5212 45.6451 41.4506C44.5714 43.3799 44.1902 45.157 44.5016 46.7819C44.843 48.3966 45.7934 49.638 47.3528 50.5058C48.3553 51.0638 49.3891 51.3032 50.4544 51.2239C51.5383 51.1551 52.56 50.7828 53.5195 50.1072C54.4905 49.411 55.3187 48.4472 56.0041 47.2157C56.6894 45.9843 57.072 44.7725 57.152 43.5804C57.2319 42.3882 57.0098 41.3238 56.4856 40.3869C55.9915 39.4399 55.2432 38.6874 54.2407 38.1295Z" fill="black"/>
</mask>
<g mask="url(#mask0_1_106)">
<path d="M56.0863 57.2301L47.0571 55.136L45.9866 58.9033L55.0159 60.9974L56.0863 57.2301Z" fill="#FF7E21" stroke="#FBFBFB" stroke-width="2"/>
</g>
<path d="M55.5956 9.88086C55.3066 10.2949 54.9023 10.6055 54.3828 10.8125C53.8671 11.0156 53.2656 11.1172 52.5781 11.1172C51.8828 11.1172 51.2656 10.9551 50.7265 10.6309C50.1874 10.3027 49.7695 9.83789 49.4726 9.23633C49.1796 8.63477 49.0292 7.9375 49.0214 7.14453V6.40039C49.0214 5.11523 49.3203 4.11914 49.9179 3.41211C50.5195 2.70508 51.3632 2.35156 52.4492 2.35156C53.3398 2.35156 54.0566 2.58008 54.5995 3.03711C55.1425 3.49023 55.4745 4.13477 55.5956 4.9707H54.4706C54.2597 3.8418 53.5878 3.27734 52.455 3.27734C51.7011 3.27734 51.1288 3.54297 50.7382 4.07422C50.3515 4.60156 50.1562 5.36719 50.1523 6.37109V7.06836C50.1523 8.02539 50.371 8.78711 50.8085 9.35352C51.246 9.91602 51.8378 10.1973 52.5839 10.1973C53.0058 10.1973 53.3749 10.1504 53.6913 10.0566C54.0078 9.96289 54.2695 9.80469 54.4765 9.58203V7.66602L52.5019 7.66602V6.75195L55.5956 6.75195V9.88086Z" fill="white"/>
<path d="M61.318 13.3102L60.2842 12.9843L62.9906 4.4008L64.0244 4.72676L61.318 13.3102Z" fill="white"/>
<path d="M72.2501 19.7546C71.5461 19.2617 71.1347 18.6303 71.0158 17.8603C70.8991 17.0871 71.1118 16.3134 71.654 15.539L71.7683 15.3758C72.129 14.8607 72.5481 14.4698 73.0256 14.2033C73.5086 13.9359 74.0056 13.8118 74.5166 13.831C75.0331 13.8494 75.4977 14.003 75.9105 14.2921C76.5857 14.7648 76.9547 15.3546 77.0177 16.0616C77.0806 16.7685 76.8219 17.5363 76.2416 18.3651L75.9829 18.7346L72.4647 16.2712C72.119 16.7921 71.9776 17.3107 72.0406 17.8269C72.109 18.3421 72.364 18.7543 72.8056 19.0635C73.1192 19.2831 73.4296 19.405 73.7368 19.4294C74.044 19.4538 74.3531 19.4175 74.6642 19.3206L74.9108 20.1227C74.0073 20.4867 73.1204 20.3641 72.2501 19.7546ZM75.3997 15.0216C75.0413 14.7707 74.6487 14.6913 74.2217 14.7834C73.7971 14.8723 73.3913 15.1317 73.0043 15.5618L75.6058 17.3833L75.6528 17.3161C75.9431 16.847 76.0658 16.4131 76.0207 16.0144C75.9779 15.6124 75.7709 15.2815 75.3997 15.0216Z" fill="white"/>
<path d="M80.4893 29.2055C80.5504 29.0798 80.6962 28.9039 80.9265 28.678C80.2045 28.5968 79.6306 28.2789 79.205 27.7242C78.8245 27.2283 78.6513 26.7138 78.6852 26.1806C78.7247 25.6481 78.9598 25.2166 79.3906 24.886C79.9143 24.4842 80.4725 24.371 81.0651 24.5465C81.6631 24.7227 82.2392 25.1719 82.7933 25.894L83.4353 26.7307L83.8305 26.4275C84.1311 26.1969 84.3007 25.9239 84.3395 25.6086C84.3813 25.2909 84.2678 24.957 83.9991 24.6068C83.7637 24.3 83.4889 24.1022 83.1746 24.0135C82.8603 23.9248 82.5931 23.9648 82.3731 24.1337L81.7097 23.269C81.9607 23.0764 82.2702 22.9792 82.6382 22.9775C83.0116 22.9766 83.383 23.0756 83.7524 23.2747C84.1242 23.4769 84.4504 23.7608 84.731 24.1265C85.1757 24.706 85.3784 25.2718 85.3391 25.8238C85.303 26.3734 85.0356 26.8495 84.5368 27.2518L82.2219 29.0282C81.7601 29.3825 81.438 29.7232 81.2557 30.0502L81.1813 30.1073L80.4893 29.2055ZM80.0497 27.2754C80.2566 27.545 80.5225 27.7472 80.8474 27.8819C81.1724 28.0166 81.488 28.0526 81.7944 27.9899L82.8264 27.198L82.3092 26.524C81.5007 25.4703 80.788 25.1801 80.1713 25.6533C79.9017 25.8602 79.7599 26.1117 79.746 26.408C79.7321 26.7043 79.8333 26.9934 80.0497 27.2754Z" fill="white"/>
<path d="M89.5987 34.8615L88.948 35.1295C89.6208 35.3792 90.0922 35.8749 90.3621 36.6163C90.6654 37.4496 90.5524 38.1329 90.0233 38.6664C90.3817 38.7604 90.7065 38.9332 90.9976 39.1847C91.29 39.4399 91.5151 39.7841 91.6727 40.2173C92.1483 41.524 91.6982 42.4403 90.3224 42.966L86.3306 44.4189L85.9598 43.4003L89.8911 41.9694C90.3169 41.8144 90.599 41.6016 90.7374 41.3309C90.8795 41.0588 90.8671 40.6934 90.7001 40.2346C90.5625 39.8565 90.3344 39.5841 90.016 39.4173C89.7012 39.2492 89.3456 39.2144 88.9492 39.313L84.9959 40.7519L84.6231 39.7278L88.5269 38.3069C89.3932 37.9916 89.672 37.41 89.3634 36.5621C89.1202 35.894 88.6694 35.5405 88.0109 35.5017L83.6612 37.0849L83.2905 36.0663L89.248 33.8979L89.5987 34.8615Z" fill="white"/>
<path d="M86.9167 49.1441L91.7285 50.412L91.7792 51.5711L84.3566 49.3439C83.2857 48.9957 82.7315 48.3924 82.694 47.5338L82.7026 47.3282L82.7611 46.9209L83.6392 46.8826L83.6285 47.1763C83.6445 47.5431 83.7311 47.8248 83.8883 48.0212C84.0456 48.2216 84.3243 48.3795 84.7242 48.495L85.3786 48.7069L91.5435 46.1739L91.5951 47.3563L86.9167 49.1441Z" fill="white"/>
<path d="M80.4858 72.0804L82.0221 69.6688L82.7683 70.1442L81.232 72.5558L80.4858 72.0804Z" fill="white"/>
<path d="M56.7635 87.3354C56.5156 86.4614 56.5573 85.6894 56.8886 85.0194C57.2179 84.3545 57.8119 83.8442 58.6708 83.4884C59.6019 83.1028 60.4873 83.1271 61.3268 83.5616C62.1627 83.9975 62.8124 84.7749 63.2758 85.8936L63.5897 86.6515C63.8932 87.3841 64.0301 88.0821 64.0005 88.7455C63.9672 89.4104 63.7719 89.9902 63.4145 90.485C63.0586 90.9833 62.5648 91.3633 61.9333 91.6249C61.096 91.9717 60.3276 92.0152 59.628 91.7553C58.9299 91.4991 58.3682 90.9749 57.9429 90.1828L58.9877 89.7501C59.338 90.3406 59.723 90.7139 60.1428 90.8698C60.5589 91.0272 61.0377 90.9938 61.579 90.7696C62.243 90.4946 62.6629 90.0331 62.8385 89.3854C63.0105 88.7391 62.9089 87.963 62.5337 87.0572L62.2176 86.2939C61.8633 85.4386 61.4029 84.8323 60.8363 84.4751C60.2697 84.1178 59.6653 84.0722 59.0229 84.3383C58.4455 84.5775 58.0572 84.8905 57.8581 85.2774C57.6568 85.6695 57.6402 86.2112 57.8082 86.9026L56.7635 87.3354Z" fill="white"/>
<path d="M48.1233 90.4101C48.2891 90.423 48.4673 90.4211 48.658 90.4045C49.3663 90.3425 49.8205 89.9989 50.0206 89.3736L49.6284 84.8907L50.7083 84.7962L51.2608 91.1119L50.2102 91.2039L50.1288 90.4758C49.8241 91.071 49.3468 91.397 48.6969 91.4539C48.4868 91.4723 48.3248 91.459 48.2111 91.414L48.1233 90.4101Z" fill="white"/>
<path d="M36.9688 83.1285C37.8078 83.3145 38.4296 83.7404 38.8342 84.4063C39.2378 85.0759 39.3374 85.8722 39.1328 86.7951L39.0897 86.9896C38.9535 87.6036 38.7159 88.1251 38.3767 88.554C38.0329 88.9859 37.6212 89.2908 37.1417 89.4685C36.6575 89.6493 36.1695 89.6851 35.6775 89.576C34.8728 89.3976 34.3061 88.9939 33.9775 88.3649C33.6488 87.7359 33.5939 86.9275 33.8129 85.9398L33.9106 85.4993L38.1037 86.4289C38.2237 85.8153 38.1558 85.2822 37.9001 84.8294C37.6398 84.3795 37.2464 84.0963 36.7201 83.9796C36.3464 83.8967 36.013 83.9028 35.7198 83.9979C35.4267 84.093 35.1549 84.2448 34.9046 84.4534L34.3698 83.8066C35.0652 83.1246 35.9315 82.8985 36.9688 83.1285ZM35.8703 88.7065C36.2974 88.8012 36.6905 88.7243 37.0497 88.4759C37.408 88.2312 37.6836 87.8362 37.8766 87.2908L34.7761 86.6034L34.7583 86.6835C34.6696 87.228 34.7224 87.6758 34.9166 88.027C35.11 88.3819 35.4279 88.6085 35.8703 88.7065Z" fill="white"/>
<path d="M25.7402 77.55C25.7318 77.6895 25.6645 77.9077 25.5381 78.2047C26.2362 78.0033 26.8881 78.0774 27.4936 78.427C28.0349 78.7395 28.3918 79.1486 28.5645 79.6542C28.7318 80.1613 28.6797 80.65 28.4083 81.1202C28.0782 81.6919 27.6058 82.01 26.9912 82.0747C26.3712 82.1407 25.6671 81.9462 24.8788 81.4911L23.9655 80.9638L23.7164 81.3951C23.527 81.7232 23.4747 82.0403 23.5596 82.3465C23.6425 82.6559 23.8751 82.921 24.2574 83.1417C24.5923 83.3351 24.9219 83.4126 25.2462 83.3744C25.5705 83.3361 25.802 83.1968 25.9407 82.9566L26.8845 83.5016C26.7263 83.7756 26.4776 83.9838 26.1382 84.1262C25.7936 84.27 25.4125 84.3206 24.9951 84.2781C24.5742 84.2336 24.1642 84.0961 23.765 83.8656C23.1324 83.5004 22.7286 83.0552 22.5536 82.5302C22.3767 82.0086 22.4416 81.4664 22.7484 80.9038L24.2074 78.3768C24.4984 77.8727 24.6656 77.4348 24.7089 77.0628L24.7558 76.9817L25.7402 77.55ZM26.8849 79.1649C26.5906 78.995 26.2676 78.91 25.9158 78.9099C25.5641 78.9097 25.2587 78.9973 24.9996 79.1725L24.3493 80.299L25.085 80.7238C26.2352 81.3879 27.0047 81.3833 27.3933 80.7101C27.5633 80.4158 27.598 80.1291 27.4975 79.8501C27.3969 79.571 27.1928 79.3426 26.8849 79.1649Z" fill="white"/>
<path d="M13.7231 76.5151L14.855 75.478L14.0553 74.6053L14.6731 74.0393L15.4727 74.9119L18.3714 72.2557C18.5586 72.0842 18.6641 71.916 18.6879 71.7511C18.7088 71.5889 18.6335 71.4142 18.462 71.227C18.3775 71.1349 18.2441 71.024 18.0618 70.8944L18.7098 70.3006C18.96 70.458 19.1762 70.6361 19.3583 70.8349C19.6855 71.192 19.8243 71.5602 19.7745 71.9396C19.7248 72.3189 19.5012 72.6907 19.1038 73.0549L16.205 75.7111L16.9849 76.5621L16.3671 77.1282L15.5873 76.2772L14.4555 77.3143L13.7231 76.5151Z" fill="white"/>
<path d="M13.9898 61.7302L14.448 62.7126L8.7021 65.3919L8.24399 64.4095L13.9898 61.7302ZM7.21516 66.1823C7.05585 66.2566 6.89904 66.2715 6.74472 66.2271C6.58874 66.1791 6.46618 66.0596 6.37704 65.8684C6.28789 65.6772 6.27508 65.5065 6.33861 65.3562C6.40213 65.2059 6.51355 65.0936 6.67286 65.0193C6.83217 64.945 6.98804 64.9327 7.14048 64.9823C7.29291 65.0319 7.4137 65.1523 7.50284 65.3434C7.59199 65.5346 7.60657 65.7045 7.54659 65.8532C7.48495 65.9983 7.37448 66.108 7.21516 66.1823Z" fill="white"/>
<path d="M8.4194 52.6461C7.80362 52.7271 7.234 52.68 6.71054 52.5046C6.18656 52.3254 5.76267 52.0384 5.43885 51.6437C5.11452 51.2451 4.9159 50.7689 4.84298 50.2151C4.7303 49.3592 4.93556 48.6289 5.45877 48.0242C5.98146 47.4156 6.73465 47.0466 7.71835 46.9171L7.79387 46.9071C8.40578 46.8266 8.97127 46.8723 9.49035 47.0443C10.005 47.2129 10.4268 47.4982 10.7555 47.9002C11.0837 48.2982 11.285 48.78 11.3594 49.3454C11.4716 50.1974 11.2663 50.9277 10.7437 51.5363C10.2204 52.141 9.47087 52.5076 8.49492 52.6361L8.4194 52.6461ZM8.40495 51.5487C9.10206 51.4569 9.64052 51.2225 10.0203 50.8455C10.3997 50.4646 10.5536 50.0031 10.4822 49.4609C10.4103 48.9148 10.1402 48.5091 9.6719 48.2437C9.1997 47.9789 8.57825 47.8972 7.80756 47.9987C7.11819 48.0894 6.58217 48.3274 6.1995 48.7127C5.81245 49.0946 5.65461 49.5567 5.72599 50.0989C5.79584 50.6295 6.06325 51.0296 6.52822 51.2994C6.99319 51.5691 7.61876 51.6522 8.40495 51.5487Z" fill="white"/>
<path d="M6.01197 38.6008L6.80285 38.7046C6.28684 38.1217 6.09667 37.4456 6.23233 36.6763C6.46499 35.3568 7.32672 34.8225 8.8175 35.0735L12.9433 35.801L12.7551 36.8685L8.6235 36.14C8.17274 36.0645 7.82166 36.1096 7.57029 36.2755C7.31959 36.4376 7.15659 36.7321 7.0813 37.1591C7.02025 37.5054 7.05899 37.8255 7.19752 38.1197C7.33604 38.4138 7.54245 38.6605 7.81673 38.8595L12.2657 39.644L12.0774 40.7115L5.83392 39.6106L6.01197 38.6008Z" fill="white"/>
</svg>
