<svg width="19" height="19" viewBox="0 0 19 19" fill="none" xmlns="http://www.w3.org/2000/svg">
<path d="M8.125 0.5C12.1291 0.5 15.375 3.74594 15.375 7.75C15.375 9.4819 14.7677 11.0719 13.7545 12.3188L18.6553 17.2197C18.9482 17.5126 18.9482 17.9874 18.6553 18.2803C18.3891 18.5466 17.9724 18.5708 17.6788 18.3529L17.5947 18.2803L12.6938 13.3795C11.4469 14.3927 9.8569 15 8.125 15C4.12094 15 0.875 11.7541 0.875 7.75C0.875 3.74594 4.12094 0.5 8.125 0.5ZM8.125 2C4.94936 2 2.375 4.57436 2.375 7.75C2.375 10.9256 4.94936 13.5 8.125 13.5C11.3006 13.5 13.875 10.9256 13.875 7.75C13.875 4.57436 11.3006 2 8.125 2Z" fill="white"/>
</svg>
