<svg width="16" height="403" viewBox="0 0 16 403" fill="none" xmlns="http://www.w3.org/2000/svg">
<path d="M13 140.845L3.04687 140.845L3.04687 138.035C3.04687 137.169 3.23828 136.404 3.62109 135.738C4.00391 135.073 4.5485 134.56 5.25488 134.2C5.96126 133.836 6.77246 133.651 7.68848 133.646L8.32422 133.646C9.26302 133.646 10.0856 133.829 10.792 134.193C11.4984 134.553 12.0407 135.071 12.4189 135.745C12.7972 136.415 12.9909 137.197 13 138.09L13 140.845ZM4.12695 139.532L11.9268 139.532L11.9268 138.151C11.9268 137.14 11.6123 136.354 10.9834 135.793C10.3545 135.228 9.45898 134.945 8.29687 134.945L7.71582 134.945C6.58561 134.945 5.70833 135.212 5.08398 135.745C4.45508 136.274 4.13607 137.026 4.12695 138.001L4.12695 139.532ZM13 129.689L13 131.002L3.04687 131.002L3.04687 129.689L13 129.689ZM11.6943 119.374C12.1774 119.711 12.5397 120.183 12.7812 120.789C13.0182 121.391 13.1367 122.093 13.1367 122.895C13.1367 123.706 12.9476 124.426 12.5693 125.055C12.1865 125.684 11.6442 126.171 10.9424 126.518C10.2406 126.859 9.42708 127.035 8.50195 127.044L7.63379 127.044C6.13444 127.044 4.97233 126.695 4.14746 125.998C3.32259 125.296 2.91016 124.312 2.91016 123.045C2.91016 122.006 3.17676 121.17 3.70996 120.536C4.23861 119.903 4.99056 119.515 5.96582 119.374L5.96582 120.687C4.64876 120.933 3.99023 121.717 3.99023 123.038C3.99023 123.918 4.30013 124.585 4.91992 125.041C5.53516 125.492 6.42838 125.72 7.59961 125.725L8.41309 125.725C9.52962 125.725 10.4183 125.47 11.0791 124.959C11.7354 124.449 12.0635 123.758 12.0635 122.888C12.0635 122.396 12.0088 121.965 11.8994 121.596C11.79 121.227 11.6055 120.921 11.3457 120.68L9.11035 120.68L9.11035 122.984L8.04394 122.984L8.04394 119.374L11.6943 119.374ZM13 115.212L13 116.524L3.04687 116.524L3.04687 115.212L13 115.212ZM4.12695 105.573L4.12695 108.773L13 108.773L13 110.078L4.12695 110.078L4.12695 113.271L3.04687 113.271L3.04687 105.573L4.12695 105.573ZM10.4023 98.5877L10.4023 102.758L13 103.694L13 105.048L3.04687 101.247L3.04687 100.098L13 96.2908L13 97.6375L10.4023 98.5877ZM9.32226 102.361L9.32226 98.9773L4.66699 100.673L9.32226 102.361ZM11.9268 93.0716L11.9268 88.3548L13 88.3548L13 94.391L3.04687 94.391L3.04687 93.0716L11.9268 93.0716ZM3.04687 80.5698L11.168 77.3159L3.04687 74.062L3.04687 72.3598L13 72.3598L13 73.6723L9.12402 73.6723L4.94043 73.5493L13 76.8169L13 77.8218L4.96093 81.0825L9.12402 80.9526L13 80.9526L13 82.2651L3.04687 82.2651L3.04687 80.5698ZM10.4023 63.8633L10.4023 68.0332L13 68.9698L13 70.3233L3.04687 66.5225L3.04687 65.3741L13 61.5664L13 62.9131L10.4023 63.8633ZM9.32226 67.6368L9.32226 64.253L4.66699 65.9483L9.32226 67.6368ZM8.97363 56.0162L8.97363 58.3541L13 58.3541L13 59.6734L3.04687 59.6734L3.04687 56.3785C3.04687 55.2574 3.30208 54.3961 3.8125 53.7945C4.32291 53.1884 5.06575 52.8854 6.04101 52.8854C6.6608 52.8854 7.20084 53.054 7.66113 53.3912C8.12142 53.7239 8.46549 54.1887 8.69336 54.7857L12.918 52.4479L13 52.4479L13 53.8561L8.97363 56.0162ZM7.90039 58.3541L7.90039 56.3375C7.90039 55.6858 7.73177 55.1686 7.39453 54.7857C7.05729 54.3984 6.60612 54.2047 6.04101 54.2047C5.42578 54.2047 4.9541 54.3893 4.62597 54.7584C4.29785 55.123 4.13151 55.6516 4.12695 56.3443L4.12695 58.3541L7.90039 58.3541ZM8.37207 47.9503L9.63671 49.1671L13 49.1671L13 50.4796L3.04687 50.4796L3.04687 49.1671L7.96875 49.1671L3.04687 44.7443L3.04687 43.1584L7.44238 47.0753L13 42.8507L13 44.423L8.37207 47.9503ZM8.39941 35.5163L8.39941 39.8298L11.9268 39.8298L11.9268 34.8191L13 34.8191L13 41.1423L3.04687 41.1423L3.04687 34.8874L4.12695 34.8874L4.12695 39.8298L7.32617 39.8298L7.32617 35.5163L8.39941 35.5163ZM4.12695 25.6116L4.12695 28.8108L13 28.8108L13 30.1165L4.12695 30.1165L4.12695 33.3089L3.04687 33.3089L3.04687 25.6116L4.12695 25.6116ZM13 22.1668L13 23.4793L3.04687 23.4793L3.04687 22.1668L13 22.1668ZM13 11.5512L13 12.8705L5.33007 17.8812L13 17.8812L13 19.2006L3.04687 19.2006L3.04687 17.8812L10.751 12.8568L3.04687 12.8568L3.04687 11.5512L13 11.5512ZM11.6943 1.31148C12.1774 1.64872 12.5397 2.1204 12.7812 2.72652C13.0182 3.32808 13.1367 4.0299 13.1367 4.83198C13.1367 5.64318 12.9476 6.36323 12.5693 6.99214C12.1865 7.62105 11.6442 8.10868 10.9424 8.45503C10.2406 8.79683 9.42708 8.97228 8.50195 8.9814L7.63378 8.9814C6.13443 8.9814 4.97232 8.63277 4.14746 7.9355C3.32259 7.23368 2.91015 6.2493 2.91015 4.98238C2.91015 3.94331 3.17675 3.10705 3.70995 2.47359C4.2386 1.84012 4.99055 1.45275 5.96581 1.31148L5.96581 2.62398C4.64876 2.87007 3.99023 3.65393 3.99023 4.97554C3.99023 5.8551 4.30012 6.52274 4.91992 6.97847C5.53515 7.42964 6.42838 7.65751 7.5996 7.66206L8.41308 7.66206C9.52962 7.66206 10.4183 7.40685 11.0791 6.89644C11.7353 6.38602 12.0635 5.69559 12.0635 4.82515C12.0635 4.33296 12.0088 3.9023 11.8994 3.53316C11.79 3.16402 11.6055 2.85868 11.3457 2.61714L9.11035 2.61714L9.11035 4.92085L8.04394 4.92085L8.04394 1.31148L11.6943 1.31148Z" fill="white"/>
<path d="M13 257.845L3.04687 257.845L3.04687 255.035C3.04687 254.169 3.23828 253.404 3.62109 252.738C4.00391 252.073 4.5485 251.56 5.25488 251.2C5.96126 250.836 6.77246 250.651 7.68848 250.646L8.32422 250.646C9.26302 250.646 10.0856 250.829 10.792 251.193C11.4984 251.553 12.0407 252.071 12.4189 252.745C12.7972 253.415 12.9909 254.197 13 255.09L13 257.845ZM4.12695 256.532L11.9268 256.532L11.9268 255.151C11.9268 254.14 11.6123 253.354 10.9834 252.793C10.3545 252.228 9.45898 251.945 8.29687 251.945L7.71582 251.945C6.58561 251.945 5.70833 252.212 5.08398 252.745C4.45508 253.274 4.13607 254.026 4.12695 255.001L4.12695 256.532ZM8.39941 242.471L8.39941 246.785L11.9268 246.785L11.9268 241.774L13 241.774L13 248.097L3.04687 248.097L3.04687 241.842L4.12695 241.842L4.12695 246.785L7.32617 246.785L7.32617 242.471L8.39941 242.471ZM8.56348 236.648C8.23991 237.773 7.84342 238.594 7.37402 239.109C6.90006 239.619 6.31673 239.874 5.62402 239.874C4.84017 239.874 4.19303 239.562 3.68262 238.938C3.16764 238.309 2.91016 237.493 2.91016 236.49C2.91016 235.807 3.04232 235.198 3.30664 234.665C3.57096 234.127 3.93555 233.713 4.40039 233.421C4.86523 233.125 5.37337 232.977 5.9248 232.977L5.9248 234.296C5.32324 234.296 4.85156 234.487 4.50976 234.87C4.16341 235.253 3.99023 235.793 3.99023 236.49C3.99023 237.137 4.13379 237.643 4.4209 238.008C4.70345 238.368 5.09766 238.548 5.60351 238.548C6.00911 238.548 6.35319 238.377 6.63574 238.035C6.91374 237.689 7.16894 237.103 7.40137 236.278C7.63379 235.449 7.89127 234.802 8.17383 234.337C8.45182 233.868 8.77767 233.521 9.15137 233.298C9.52506 233.07 9.96484 232.956 10.4707 232.956C11.2773 232.956 11.9245 233.271 12.4121 233.9C12.8952 234.528 13.1367 235.369 13.1367 236.422C13.1367 237.106 13.0068 237.744 12.7471 238.336C12.4827 238.929 12.1227 239.387 11.667 239.71C11.2113 240.029 10.694 240.189 10.1152 240.189L10.1152 238.869C10.7168 238.869 11.193 238.648 11.5439 238.206C11.8903 237.76 12.0635 237.165 12.0635 236.422C12.0635 235.729 11.9222 235.198 11.6396 234.829C11.3571 234.46 10.972 234.276 10.4844 234.276C9.99674 234.276 9.62077 234.446 9.35644 234.788C9.08756 235.13 8.82324 235.75 8.56348 236.648ZM13 229.299L13 230.612L3.04687 230.612L3.04687 229.299L13 229.299ZM11.6943 218.985C12.1774 219.322 12.5397 219.794 12.7812 220.4C13.0182 221.001 13.1367 221.703 13.1367 222.505C13.1367 223.316 12.9476 224.036 12.5693 224.665C12.1865 225.294 11.6442 225.782 10.9424 226.128C10.2406 226.47 9.42708 226.645 8.50195 226.655L7.63379 226.655C6.13444 226.655 4.97233 226.306 4.14746 225.609C3.32259 224.907 2.91015 223.922 2.91015 222.656C2.91015 221.616 3.17676 220.78 3.70996 220.147C4.23861 219.513 4.99056 219.126 5.96582 218.985L5.96582 220.297C4.64876 220.543 3.99023 221.327 3.99023 222.649C3.99023 223.528 4.30013 224.196 4.91992 224.652C5.53515 225.103 6.42838 225.331 7.59961 225.335L8.41308 225.335C9.52962 225.335 10.4183 225.08 11.0791 224.57C11.7354 224.059 12.0635 223.369 12.0635 222.498C12.0635 222.006 12.0088 221.575 11.8994 221.206C11.79 220.837 11.6055 220.532 11.3457 220.29L9.11035 220.29L9.11035 222.594L8.04394 222.594L8.04394 218.985L11.6943 218.985ZM13 208.581L13 209.9L5.33008 214.911L13 214.911L13 216.23L3.04687 216.23L3.04687 214.911L10.751 209.887L3.04687 209.887L3.04687 208.581L13 208.581ZM13 204.282L13 205.594L3.04687 205.594L3.04687 204.282L13 204.282ZM13 193.666L13 194.985L5.33008 199.996L13 199.996L13 201.315L3.04687 201.315L3.04687 199.996L10.751 194.972L3.04687 194.972L3.04687 193.666L13 193.666ZM11.6943 183.426C12.1774 183.763 12.5397 184.235 12.7812 184.841C13.0182 185.443 13.1367 186.145 13.1367 186.947C13.1367 187.758 12.9476 188.478 12.5693 189.107C12.1865 189.736 11.6442 190.223 10.9424 190.57C10.2406 190.912 9.42708 191.087 8.50195 191.096L7.63379 191.096C6.13444 191.096 4.97233 190.748 4.14746 190.05C3.32259 189.348 2.91015 188.364 2.91015 187.097C2.91015 186.058 3.17675 185.222 3.70996 184.588C4.2386 183.955 4.99056 183.568 5.96582 183.426L5.96582 184.739C4.64876 184.985 3.99023 185.769 3.99023 187.09C3.99023 187.97 4.30013 188.638 4.91992 189.093C5.53515 189.544 6.42838 189.772 7.59961 189.777L8.41308 189.777C9.52962 189.777 10.4183 189.522 11.0791 189.011C11.7353 188.501 12.0635 187.81 12.0635 186.94C12.0635 186.448 12.0088 186.017 11.8994 185.648C11.79 185.279 11.6055 184.973 11.3457 184.732L9.11035 184.732L9.11035 187.036L8.04394 187.036L8.04394 183.426L11.6943 183.426Z" fill="white"/>
<path d="M13 401.845L3.04687 401.845L3.04687 399.035C3.04687 398.169 3.23828 397.404 3.62109 396.738C4.00391 396.073 4.5485 395.56 5.25488 395.2C5.96126 394.836 6.77246 394.651 7.68848 394.646L8.32422 394.646C9.26302 394.646 10.0856 394.829 10.792 395.193C11.4984 395.553 12.0407 396.071 12.4189 396.745C12.7972 397.415 12.9909 398.197 13 399.09L13 401.845ZM4.12695 400.532L11.9268 400.532L11.9268 399.151C11.9268 398.14 11.6123 397.354 10.9834 396.793C10.3545 396.228 9.45898 395.945 8.29687 395.945L7.71582 395.945C6.58561 395.945 5.70833 396.212 5.08398 396.745C4.45508 397.274 4.13607 398.026 4.12695 399.001L4.12695 400.532ZM8.39941 386.471L8.39941 390.785L11.9268 390.785L11.9268 385.774L13 385.774L13 392.097L3.04687 392.097L3.04687 385.842L4.12695 385.842L4.12695 390.785L7.32617 390.785L7.32617 386.471L8.39941 386.471ZM11.2568 380.285L3.04687 377.442L3.04687 376.006L13 379.697L13 380.859L3.04687 384.544L3.04687 383.115L11.2568 380.285ZM8.39941 368.48L8.39941 372.794L11.9268 372.794L11.9268 367.783L13 367.783L13 374.106L3.04687 374.106L3.04687 367.851L4.12695 367.851L4.12695 372.794L7.32617 372.794L7.32617 368.48L8.39941 368.48ZM11.9268 364.27L11.9268 359.553L13 359.553L13 365.589L3.04687 365.589L3.04687 364.27L11.9268 364.27ZM8.34472 350.291C9.31998 350.291 10.1722 350.455 10.9014 350.783C11.626 351.111 12.1797 351.576 12.5625 352.178C12.9453 352.779 13.1367 353.481 13.1367 354.283C13.1367 355.067 12.9453 355.762 12.5625 356.368C12.1751 356.974 11.626 357.446 10.915 357.783C10.1995 358.116 9.37239 358.287 8.43359 358.296L7.71582 358.296C6.75879 358.296 5.91341 358.129 5.17969 357.797C4.44596 357.464 3.88541 356.995 3.49804 356.388C3.10612 355.778 2.91015 355.081 2.91015 354.297C2.91015 353.499 3.10384 352.797 3.49121 352.191C3.87402 351.581 4.43229 351.111 5.16601 350.783C5.89518 350.455 6.74511 350.291 7.71582 350.291L8.34472 350.291ZM7.70215 351.596C6.52181 351.596 5.61719 351.833 4.98828 352.307C4.35482 352.781 4.03808 353.444 4.03808 354.297C4.03808 355.126 4.35482 355.78 4.98828 356.259C5.61719 356.733 6.49219 356.976 7.61328 356.99L8.34472 356.99C9.4886 356.99 10.3887 356.751 11.0449 356.272C11.6966 355.789 12.0225 355.126 12.0225 354.283C12.0225 353.435 11.7148 352.779 11.0996 352.314C10.4798 351.849 9.59342 351.61 8.44043 351.596L7.70215 351.596ZM9.10351 346.45L13 346.45L13 347.762L3.04687 347.762L3.04687 344.091C3.04687 343.002 3.32487 342.15 3.88086 341.535C4.43685 340.915 5.17285 340.605 6.08886 340.605C7.05501 340.605 7.80013 340.908 8.32422 341.514C8.84375 342.116 9.10351 342.979 9.10351 344.105L9.10351 346.45ZM8.03027 346.45L8.03027 344.091C8.03027 343.389 7.86621 342.852 7.53808 342.478C7.2054 342.104 6.72689 341.917 6.10254 341.917C5.51009 341.917 5.03613 342.104 4.68066 342.478C4.32519 342.852 4.14062 343.364 4.12695 344.016L4.12695 346.45L8.03027 346.45ZM3.04687 336.675L11.168 333.421L3.04687 330.167L3.04687 328.465L13 328.465L13 329.777L9.12402 329.777L4.94043 329.654L13 332.922L13 333.927L4.96093 337.187L9.12402 337.058L13 337.058L13 338.37L3.04687 338.37L3.04687 336.675ZM8.39941 319.961L8.39941 324.275L11.9268 324.275L11.9268 319.264L13 319.264L13 325.587L3.04687 325.587L3.04687 319.332L4.12695 319.332L4.12695 324.275L7.32617 324.275L7.32617 319.961L8.39941 319.961ZM13 309.421L13 310.74L5.33007 315.751L13 315.751L13 317.07L3.04687 317.07L3.04687 315.751L10.751 310.727L3.04687 310.727L3.04687 309.421L13 309.421ZM4.12695 299.858L4.12695 303.057L13 303.057L13 304.363L4.12695 304.363L4.12695 307.555L3.04687 307.555L3.04687 299.858L4.12695 299.858Z" fill="white"/>
</svg>
