<svg width="110" height="110" viewBox="0 0 110 110" fill="none" xmlns="http://www.w3.org/2000/svg">
<circle cx="55" cy="55" r="35" fill="#F8F8F8"/>
<path d="M57.8301 11.6105L57.9941 12.7355L58.2344 11.7219L59.9219 5.76874H60.8711L62.5176 11.7219L62.752 12.7531L62.9336 11.6047L64.2578 5.76874L65.3887 5.76874L63.3203 14.3H62.2949L60.5371 8.08319L60.4023 7.4328L60.2676 8.08319L58.4453 14.3H57.4199L55.3574 5.76874H56.4824L57.8301 11.6105Z" fill="white"/>
<path d="M72.865 15.5534L69.4434 14.5203L68.0313 16.4198L66.9207 16.0845L72.5053 8.85901L73.4476 9.14352L74.1062 18.254L73.0012 17.9203L72.865 15.5534ZM70.0363 13.7323L72.8129 14.5706L72.5751 10.3307L70.0363 13.7323Z" fill="white"/>
<path d="M87.4663 18.5753L85.1823 17.0578L80.9735 23.3926L80.0413 22.7733L84.2501 16.4385L81.971 14.9242L82.4833 14.1531L87.9786 17.8042L87.4663 18.5753Z" fill="white"/>
<path d="M93.077 32.9296C92.3145 33.4235 91.5644 33.6106 90.8266 33.4909C90.0943 33.3717 89.4319 32.954 88.8392 32.2377C88.1968 31.4611 87.9598 30.6078 88.1282 29.6776C88.2991 28.7504 88.8511 27.9009 89.7841 27.129L90.4162 26.6062C91.0272 26.1007 91.654 25.7646 92.2968 25.5979C92.9421 25.4341 93.5537 25.4503 94.1317 25.6465C94.7127 25.8401 95.221 26.2003 95.6568 26.727C96.2344 27.4253 96.5019 28.1469 96.4592 28.892C96.4196 29.6346 96.0837 30.3256 95.4518 30.965L94.7309 30.0937C95.1924 29.5852 95.4359 29.1074 95.4615 28.6604C95.4896 28.2163 95.3169 27.7686 94.9434 27.3171C94.4853 26.7633 93.9208 26.4977 93.2501 26.5203C92.5818 26.5459 91.8699 26.8712 91.1144 27.4962L90.4778 28.0228C89.7645 28.6129 89.3204 29.2313 89.1456 29.8778C88.9707 30.5244 89.1048 31.1155 89.5481 31.6513C89.9464 32.1329 90.3598 32.4119 90.7882 32.4885C91.222 32.5656 91.7447 32.4221 92.3562 32.0582L93.077 32.9296Z" fill="white"/>
<path d="M95.4443 46.1853L95.0061 45.1428L98.6413 43.6147L96.9747 39.65L93.3395 41.1781L92.9035 40.141L100.768 36.835L101.204 37.8721L97.8227 39.2935L99.4894 43.2582L102.871 41.8368L103.309 42.8793L95.4443 46.1853Z" fill="white"/>
<path d="M97.528 66.2443L98.0638 63.4356L98.9329 63.6014L98.3971 66.4101L97.528 66.2443Z" fill="#FF7E21"/>
<path d="M81.6456 91.6644C81.0483 91.0795 80.6248 90.4679 80.375 89.8297C80.1281 89.1942 80.0677 88.5774 80.1941 87.9795C80.3204 87.3815 80.6241 86.8369 81.1051 86.3457C81.5752 85.8657 82.1092 85.5548 82.7071 85.4132C83.3078 85.2743 83.927 85.3148 84.5647 85.5347C85.2023 85.76 85.8114 86.1514 86.3918 86.7088L86.8313 87.1393C87.4174 87.7132 87.8354 88.3221 88.0852 88.9658C88.335 89.6096 88.3968 90.2332 88.2705 90.8367C88.1443 91.4458 87.8462 91.9903 87.3761 92.4703C86.8978 92.9587 86.3583 93.2724 85.7576 93.4113C85.1569 93.5557 84.5335 93.5083 83.8874 93.2692C83.2441 93.0329 82.6252 92.6237 82.0307 92.0415L81.6456 91.6644ZM82.8221 91.2501C83.545 91.958 84.2411 92.3554 84.9105 92.4423C85.5826 92.5319 86.1743 92.3158 86.6853 91.7939C87.1828 91.2859 87.381 90.6955 87.28 90.0226C87.1791 89.3551 86.7895 88.6811 86.1111 88.0004L85.6632 87.5617C84.9627 86.8757 84.268 86.4825 83.5791 86.3819C82.8903 86.287 82.2931 86.4976 81.7875 87.0139C81.2791 87.533 81.0739 88.1194 81.1719 88.7731C81.2727 89.4294 81.6721 90.1075 82.37 90.8074L82.8221 91.2501Z" fill="white"/>
<path d="M72.5866 101.512L69.792 96.4288C69.4078 95.7218 69.3132 95.0227 69.5082 94.3315C69.6999 93.6422 70.1572 93.0631 70.8801 92.5944L71.1364 92.4401C71.9545 91.9904 72.7279 91.8527 73.4568 92.027C74.1856 92.2014 74.7661 92.6735 75.1982 93.4433L77.9984 98.5369L77.0229 99.0732L74.2396 94.0105C73.9423 93.4696 73.5619 93.1304 73.0985 92.9929C72.637 92.8588 72.1306 92.9433 71.5795 93.2463C71.0216 93.553 70.6773 93.9362 70.5466 94.3958C70.4125 94.8574 70.4941 95.3586 70.7915 95.8994L73.5775 100.967L72.5866 101.512Z" fill="white"/>
<path d="M60.1504 99.0428L62.1105 98.6262L61.393 95.2504L62.4991 95.0153L64.2729 103.36L61.5104 103.947C60.5704 104.147 59.8028 104.087 59.2075 103.766C58.6083 103.446 58.2219 102.877 58.0481 102.059C57.9376 101.54 57.9828 101.057 58.1835 100.611C58.3804 100.166 58.7088 99.7945 59.1687 99.4971L56.4557 96.3717L56.4411 96.303L57.6218 96.052L60.1504 99.0428ZM62.3018 99.526L60.611 99.8854C60.0647 100.002 59.661 100.235 59.4002 100.586C59.1355 100.938 59.0535 101.351 59.1542 101.824C59.2639 102.34 59.5027 102.703 59.8706 102.912C60.2348 103.122 60.7076 103.167 61.2892 103.048L62.9742 102.69L62.3018 99.526Z" fill="white"/>
<path d="M35.986 94.6677L38.6446 95.7203L38.3189 96.543L35.6603 95.4904L35.986 94.6677Z" fill="#FF7E21"/>
<path d="M18.1754 75.9486L11.0058 77.9632L10.3035 76.9528L19.1147 74.6821L19.6832 75.5L14.4802 82.9623L13.7813 81.9567L18.1754 75.9486Z" fill="white"/>
<path d="M15.613 65.4873L15.9606 66.5572L7.84689 69.1935L7.49925 68.1236L15.613 65.4873Z" fill="white"/>
<path d="M14.2881 54.8623L5.75875 55.041L5.70832 52.6333C5.69277 51.8913 5.84306 51.2317 6.15917 50.6547C6.47527 50.0776 6.93277 49.6285 7.53164 49.3073C8.13043 48.9822 8.82228 48.8094 9.60718 48.7891L10.152 48.7777C10.9565 48.7608 11.6647 48.9023 12.2766 49.202C12.8884 49.4979 13.3624 49.9314 13.6987 50.5026C14.0348 51.0699 14.2148 51.7362 14.2387 52.5015L14.2881 54.8623ZM6.66077 53.8968L13.3448 53.7568L13.3201 52.5735C13.3019 51.7065 13.0183 51.0385 12.4693 50.5694C11.9202 50.0964 11.1477 49.8704 10.1519 49.8912L9.65393 49.9016C8.68539 49.9219 7.93839 50.1661 7.41292 50.6343C6.88346 51.0986 6.62359 51.7487 6.63328 52.5846L6.66077 53.8968Z" fill="white"/>
<path d="M13.5643 37.3962L12.57 40.9572L15.4821 41.7703L16.637 37.6336L17.5231 37.881L16.0656 43.1012L7.84857 40.807L9.29034 35.6432L10.182 35.8921L9.04278 39.9724L11.684 40.7098L12.6782 37.1488L13.5643 37.3962Z" fill="white"/>
<path d="M21.3138 24.6768C22.0196 25.1247 22.561 25.6348 22.938 26.2072C23.3117 26.7774 23.4989 27.3682 23.4997 27.9793C23.5004 28.5905 23.3166 29.1863 22.9482 29.7668C22.5882 30.3341 22.1305 30.7492 21.5751 31.012C21.0164 31.2727 20.4023 31.3619 19.7329 31.2794C19.0623 31.1916 18.3852 30.9354 17.7016 30.5108L17.1821 30.1811C16.4895 29.7416 15.9541 29.2329 15.5759 28.6552C15.1977 28.0774 15.0076 27.4803 15.0056 26.8637C15.0025 26.2418 15.1809 25.6471 15.5409 25.0799C15.9072 24.5027 16.3697 24.0837 16.9284 23.823C17.4859 23.5568 18.1055 23.4735 18.7872 23.573C19.4657 23.6705 20.1561 23.9421 20.8586 24.3879L21.3138 24.6768ZM20.2491 25.3266C19.3948 24.7845 18.6313 24.5405 17.9585 24.5947C17.2824 24.6467 16.7486 24.9811 16.3572 25.5979C15.9763 26.1982 15.9051 26.8169 16.1438 27.4542C16.3813 28.086 16.9025 28.6643 17.7076 29.1891L18.2369 29.5251C19.0648 30.0504 19.8261 30.2906 20.5208 30.2457C21.2143 30.1954 21.7546 29.8652 22.1418 29.2551C22.5312 28.6416 22.6099 28.0254 22.3782 27.4064C22.1431 26.7853 21.6115 26.2051 20.7834 25.6656L20.2491 25.3266Z" fill="white"/>
<path d="M52 64V48L62.5 55.5L52 64Z" fill="#FF7E21" stroke="#FF7E21" stroke-width="2" stroke-linejoin="round"/>
</svg>
